# xmcd
#
# Track frame offsets:
#	150
#	18225
#	40500
#	62548
#	84618
#	109068
#	127025
#	151238
#	169033
#	188788
#	206438
#	230058
#	245995
#	263025
#	281838
#	302475
#
# Disc length: 4317 seconds
#
# Revision: 1
# Processed by: cddbd v1.5.1PL0 Copyright (c) Steve Scherf et al.
# Submitted via: CDex 1.50Beta5
#
DISCID=d710db10
DTITLE=Various Artist - NEW MUSIC BEST COLLECTION 15
DYEAR=1900
DGENRE=Pop
TTITLE0=杉山清貴&オメガトライブ/二人の夏物語
TTITLE1=杉山清貴&オメガトライブ/君のハートはマリンブルー
TTITLE2=杉山清貴/風のLonelyWay
TTITLE3=杉山清貴/さよならのオーシャン
TTITLE4=杉山清貴/最後のHolyNight
TTITLE5=児島未散/ジプシー
TTITLE6=GAO/君にゆられて
TTITLE7=GAO/サヨナラ
TTITLE8=因幡晃/忍冬
TTITLE9=因幡晃/わかって下さい
TTITLE10=大橋純子/愛は時を越えて
TTITLE11=JUN SKY WALKER(S)/歩いていこう
TTITLE12=嘉納昌吉/花
TTITLE13=1986オメガトライブ/君は100%
TTITLE14=1986オメガトライブ/Super Chance
TTITLE15=筋肉少女帯/サボテンとバントライン
EXTD=
EXTT0=
EXTT1=
EXTT2=
EXTT3=
EXTT4=
EXTT5=
EXTT6=
EXTT7=
EXTT8=
EXTT9=
EXTT10=
EXTT11=
EXTT12=
EXTT13=
EXTT14=
EXTT15=
PLAYORDER=
